<svg width="603" height="579" viewBox="0 0 603 579" fill="none" xmlns="http://www.w3.org/2000/svg">
<path d="M276.051 118.598L270.746 101.77H273.644L278.084 115.863L282.584 101.77H285.482L280.176 118.598H276.051ZM286.625 104.06V101.478H289.442V104.06H286.625ZM286.625 118.598V105.977H289.442V118.598H286.625ZM297.426 118.948C295.868 118.948 294.602 118.598 293.628 117.897C292.654 117.196 292.062 116.21 291.851 114.94L294.726 114.496C294.874 115.119 295.201 115.61 295.708 115.969C296.214 116.327 296.853 116.506 297.624 116.506C298.302 116.506 298.824 116.374 299.19 116.109C299.564 115.836 299.751 115.466 299.751 114.999C299.751 114.71 299.681 114.481 299.541 114.309C299.408 114.13 299.112 113.959 298.653 113.795C298.193 113.631 297.488 113.425 296.538 113.176C295.478 112.895 294.637 112.595 294.013 112.276C293.39 111.949 292.942 111.563 292.669 111.119C292.397 110.675 292.26 110.137 292.26 109.506C292.26 108.719 292.467 108.034 292.88 107.449C293.293 106.865 293.869 106.417 294.609 106.105C295.349 105.786 296.222 105.626 297.227 105.626C298.209 105.626 299.077 105.778 299.833 106.082C300.597 106.386 301.212 106.818 301.679 107.379C302.147 107.94 302.435 108.599 302.544 109.354L299.669 109.868C299.599 109.331 299.354 108.906 298.933 108.595C298.52 108.283 297.967 108.108 297.274 108.069C296.612 108.03 296.078 108.131 295.673 108.373C295.268 108.606 295.065 108.937 295.065 109.366C295.065 109.607 295.147 109.814 295.311 109.985C295.474 110.157 295.801 110.328 296.292 110.499C296.791 110.671 297.531 110.881 298.512 111.13C299.517 111.388 300.32 111.684 300.92 112.019C301.527 112.346 301.964 112.739 302.229 113.199C302.501 113.659 302.638 114.216 302.638 114.87C302.638 116.14 302.174 117.137 301.247 117.862C300.328 118.586 299.054 118.948 297.426 118.948ZM309.541 118.96C308.606 118.96 307.834 118.804 307.227 118.493C306.619 118.181 306.136 117.784 305.778 117.301C305.419 116.818 305.154 116.304 304.983 115.758C304.812 115.213 304.699 114.699 304.644 114.216C304.597 113.725 304.574 113.327 304.574 113.024V105.977H307.425V112.054C307.425 112.443 307.453 112.883 307.507 113.374C307.562 113.857 307.686 114.325 307.881 114.777C308.084 115.221 308.38 115.587 308.769 115.875C309.167 116.163 309.7 116.307 310.37 116.307C310.729 116.307 311.083 116.249 311.434 116.132C311.784 116.015 312.1 115.817 312.38 115.536C312.669 115.248 312.898 114.854 313.07 114.356C313.241 113.857 313.327 113.226 313.327 112.463L314.998 113.176C314.998 114.251 314.788 115.225 314.367 116.097C313.954 116.97 313.342 117.667 312.532 118.189C311.722 118.703 310.725 118.96 309.541 118.96ZM313.666 118.598V114.683H313.327V105.977H316.155V118.598H313.666ZM322.578 118.948C321.666 118.948 320.895 118.777 320.264 118.434C319.633 118.084 319.154 117.62 318.827 117.044C318.507 116.467 318.347 115.832 318.347 115.139C318.347 114.531 318.449 113.986 318.651 113.503C318.854 113.012 319.166 112.591 319.586 112.241C320.007 111.882 320.552 111.59 321.222 111.364C321.729 111.201 322.321 111.053 322.999 110.92C323.684 110.788 324.424 110.667 325.219 110.558C326.021 110.441 326.859 110.316 327.731 110.184L326.726 110.757C326.734 109.884 326.539 109.241 326.142 108.828C325.745 108.415 325.075 108.209 324.132 108.209C323.563 108.209 323.014 108.341 322.484 108.606C321.955 108.871 321.585 109.327 321.374 109.974L318.803 109.167C319.115 108.1 319.707 107.243 320.58 106.596C321.46 105.95 322.644 105.626 324.132 105.626C325.254 105.626 326.239 105.809 327.089 106.176C327.946 106.542 328.581 107.142 328.993 107.975C329.219 108.419 329.356 108.875 329.403 109.343C329.449 109.802 329.473 110.305 329.473 110.85V118.598H327.007V115.863L327.416 116.307C326.847 117.219 326.181 117.889 325.418 118.317C324.662 118.738 323.715 118.948 322.578 118.948ZM323.139 116.705C323.778 116.705 324.323 116.592 324.775 116.366C325.227 116.14 325.585 115.863 325.85 115.536C326.123 115.209 326.306 114.901 326.399 114.613C326.547 114.255 326.629 113.846 326.645 113.386C326.668 112.918 326.68 112.541 326.68 112.252L327.544 112.509C326.695 112.642 325.967 112.759 325.359 112.86C324.751 112.961 324.229 113.059 323.793 113.152C323.357 113.238 322.971 113.335 322.636 113.444C322.309 113.561 322.032 113.698 321.807 113.853C321.581 114.009 321.405 114.188 321.281 114.391C321.164 114.593 321.105 114.831 321.105 115.104C321.105 115.415 321.183 115.692 321.339 115.933C321.495 116.167 321.721 116.354 322.017 116.494C322.321 116.635 322.695 116.705 323.139 116.705ZM332.359 118.598V101.419H335.176V118.598H332.359ZM246.167 150.598V133.77H257.035V136.411H248.984V140.56H255.633V143.201H248.984V147.957H257.035V150.598H246.167ZM258.047 150.598L262.663 144.217L258.141 137.977H261.46L264.299 142.009L267.092 137.977H270.411L265.889 144.217L270.528 150.598H267.209L264.299 146.426L261.366 150.598H258.047ZM277.026 150.948C275.725 150.948 274.615 150.66 273.695 150.084C272.776 149.499 272.071 148.705 271.58 147.7C271.097 146.695 270.852 145.557 270.844 144.287C270.852 142.994 271.105 141.849 271.603 140.852C272.11 139.847 272.827 139.06 273.754 138.491C274.681 137.915 275.783 137.626 277.061 137.626C278.494 137.626 279.706 137.989 280.695 138.713C281.692 139.43 282.343 140.412 282.647 141.658L279.842 142.418C279.624 141.74 279.262 141.214 278.755 140.84C278.249 140.458 277.672 140.267 277.026 140.267C276.293 140.267 275.69 140.443 275.214 140.793C274.739 141.136 274.389 141.611 274.163 142.219C273.937 142.827 273.824 143.516 273.824 144.287C273.824 145.487 274.093 146.457 274.63 147.197C275.168 147.937 275.966 148.307 277.026 148.307C277.774 148.307 278.362 148.136 278.79 147.793C279.227 147.45 279.554 146.956 279.772 146.309L282.647 146.952C282.257 148.237 281.576 149.227 280.602 149.92C279.628 150.606 278.436 150.948 277.026 150.948ZM289.995 150.948C288.717 150.948 287.595 150.672 286.629 150.119C285.663 149.566 284.907 148.798 284.362 147.817C283.824 146.835 283.556 145.705 283.556 144.428C283.556 143.049 283.82 141.853 284.35 140.84C284.88 139.819 285.616 139.029 286.559 138.468C287.502 137.907 288.592 137.626 289.831 137.626C291.14 137.626 292.25 137.934 293.161 138.55C294.081 139.157 294.762 140.018 295.207 141.132C295.651 142.246 295.818 143.559 295.709 145.07H292.916V144.042C292.908 142.671 292.667 141.67 292.192 141.039C291.716 140.408 290.968 140.092 289.948 140.092C288.795 140.092 287.938 140.45 287.377 141.167C286.816 141.876 286.535 142.916 286.535 144.287C286.535 145.565 286.816 146.555 287.377 147.256C287.938 147.957 288.756 148.307 289.831 148.307C290.524 148.307 291.12 148.156 291.619 147.852C292.125 147.54 292.515 147.092 292.788 146.508L295.569 147.349C295.086 148.487 294.338 149.371 293.325 150.002C292.32 150.633 291.21 150.948 289.995 150.948ZM285.647 145.07V142.944H294.33V145.07H285.647ZM298.161 150.598V133.419H300.977V150.598H298.161ZM304.322 150.598V133.419H307.138V150.598H304.322ZM315.987 150.948C314.709 150.948 313.587 150.672 312.621 150.119C311.655 149.566 310.9 148.798 310.354 147.817C309.817 146.835 309.548 145.705 309.548 144.428C309.548 143.049 309.813 141.853 310.343 140.84C310.872 139.819 311.609 139.029 312.551 138.468C313.494 137.907 314.585 137.626 315.823 137.626C317.132 137.626 318.242 137.934 319.154 138.55C320.073 139.157 320.755 140.018 321.199 141.132C321.643 142.246 321.811 143.559 321.701 145.07H318.908V144.042C318.901 142.671 318.659 141.67 318.184 141.039C317.709 140.408 316.961 140.092 315.94 140.092C314.787 140.092 313.93 140.45 313.369 141.167C312.808 141.876 312.528 142.916 312.528 144.287C312.528 145.565 312.808 146.555 313.369 147.256C313.93 147.957 314.748 148.307 315.823 148.307C316.517 148.307 317.113 148.156 317.611 147.852C318.118 147.54 318.507 147.092 318.78 146.508L321.561 147.349C321.078 148.487 320.33 149.371 319.317 150.002C318.312 150.633 317.202 150.948 315.987 150.948ZM311.64 145.07V142.944H320.322V145.07H311.64ZM332.307 150.598V144.521C332.307 144.124 332.279 143.684 332.225 143.201C332.17 142.718 332.042 142.254 331.839 141.81C331.644 141.358 331.348 140.988 330.951 140.7C330.561 140.412 330.032 140.267 329.362 140.267C329.003 140.267 328.649 140.326 328.298 140.443C327.948 140.56 327.628 140.762 327.34 141.05C327.059 141.331 326.834 141.72 326.662 142.219C326.491 142.71 326.405 143.341 326.405 144.112L324.734 143.399C324.734 142.324 324.94 141.35 325.353 140.478C325.774 139.605 326.389 138.912 327.2 138.398C328.01 137.876 329.007 137.615 330.191 137.615C331.126 137.615 331.897 137.77 332.505 138.082C333.113 138.394 333.596 138.791 333.954 139.274C334.313 139.757 334.577 140.271 334.749 140.817C334.92 141.362 335.029 141.88 335.076 142.371C335.131 142.854 335.158 143.247 335.158 143.551V150.598H332.307ZM323.554 150.598V137.977H326.066V141.892H326.405V150.598H323.554ZM343.093 150.948C341.792 150.948 340.682 150.66 339.763 150.084C338.843 149.499 338.138 148.705 337.648 147.7C337.165 146.695 336.919 145.557 336.911 144.287C336.919 142.994 337.172 141.849 337.671 140.852C338.177 139.847 338.894 139.06 339.821 138.491C340.748 137.915 341.851 137.626 343.128 137.626C344.562 137.626 345.773 137.989 346.763 138.713C347.76 139.43 348.41 140.412 348.714 141.658L345.91 142.418C345.691 141.74 345.329 141.214 344.823 140.84C344.316 140.458 343.74 140.267 343.093 140.267C342.361 140.267 341.757 140.443 341.282 140.793C340.807 141.136 340.456 141.611 340.23 142.219C340.004 142.827 339.891 143.516 339.891 144.287C339.891 145.487 340.16 146.457 340.698 147.197C341.235 147.937 342.034 148.307 343.093 148.307C343.841 148.307 344.429 148.136 344.858 147.793C345.294 147.45 345.621 146.956 345.839 146.309L348.714 146.952C348.325 148.237 347.643 149.227 346.669 149.92C345.695 150.606 344.503 150.948 343.093 150.948ZM356.062 150.948C354.784 150.948 353.662 150.672 352.696 150.119C351.73 149.566 350.975 148.798 350.429 147.817C349.892 146.835 349.623 145.705 349.623 144.428C349.623 143.049 349.888 141.853 350.418 140.84C350.947 139.819 351.684 139.029 352.626 138.468C353.569 137.907 354.66 137.626 355.898 137.626C357.207 137.626 358.317 137.934 359.229 138.55C360.148 139.157 360.83 140.018 361.274 141.132C361.718 142.246 361.886 143.559 361.776 145.07H358.984V144.042C358.976 142.671 358.734 141.67 358.259 141.039C357.784 140.408 357.036 140.092 356.015 140.092C354.862 140.092 354.005 140.45 353.444 141.167C352.883 141.876 352.603 142.916 352.603 144.287C352.603 145.565 352.883 146.555 353.444 147.256C354.005 147.957 354.823 148.307 355.898 148.307C356.592 148.307 357.188 148.156 357.686 147.852C358.193 147.54 358.582 147.092 358.855 146.508L361.636 147.349C361.153 148.487 360.405 149.371 359.393 150.002C358.388 150.633 357.277 150.948 356.062 150.948ZM351.715 145.07V142.944H360.398V145.07H351.715Z" fill="white"/>
<circle cx="304.029" cy="131.54" r="130.105" stroke="white" stroke-width="1.55814"/>
<path fill-rule="evenodd" clip-rule="evenodd" d="M434.562 141.196C434.607 140.581 434.648 139.965 434.684 139.347C489.162 179.49 524.506 244.097 524.506 316.959C524.506 320.663 524.415 324.345 524.234 328.004C523.727 327.78 523.217 327.56 522.706 327.342C522.867 323.901 522.948 320.44 522.948 316.959C522.948 244.97 488.201 181.097 434.562 141.196ZM173.374 139.347C173.41 139.965 173.451 140.581 173.496 141.196C119.857 181.097 85.1097 244.97 85.1097 316.959C85.1097 319.816 85.1644 322.66 85.2729 325.491C84.7594 325.686 84.2474 325.885 83.737 326.087C83.6138 323.06 83.5515 320.017 83.5515 316.959C83.5515 244.097 118.895 179.49 173.374 139.347ZM236.236 526.818C257.594 533.712 280.377 537.436 304.029 537.436C326.295 537.436 347.79 534.136 368.052 527.997C367.712 527.558 367.374 527.118 367.039 526.674C347.085 532.661 325.933 535.878 304.029 535.878C280.731 535.878 258.283 532.239 237.223 525.498C236.897 525.94 236.568 526.38 236.236 526.818Z" fill="white" fill-opacity="0.4"/>
<path d="M425.643 457.262V440.434H428.46V457.262H425.643ZM440.3 457.262V451.185C440.3 450.787 440.273 450.347 440.219 449.864C440.164 449.381 440.035 448.918 439.833 448.474C439.638 448.022 439.342 447.652 438.945 447.363C438.555 447.075 438.025 446.931 437.355 446.931C436.997 446.931 436.643 446.99 436.292 447.106C435.941 447.223 435.622 447.426 435.334 447.714C435.053 447.995 434.827 448.384 434.656 448.883C434.485 449.373 434.399 450.005 434.399 450.776L432.728 450.063C432.728 448.988 432.934 448.014 433.347 447.141C433.768 446.269 434.383 445.575 435.193 445.061C436.004 444.539 437.001 444.278 438.185 444.278C439.12 444.278 439.891 444.434 440.499 444.746C441.107 445.057 441.59 445.455 441.948 445.938C442.306 446.421 442.571 446.935 442.743 447.48C442.914 448.026 443.023 448.544 443.07 449.035C443.124 449.518 443.152 449.911 443.152 450.215V457.262H440.3ZM431.547 457.262V444.641H434.06V448.555H434.399V457.262H431.547ZM453.209 457.262C452.375 457.417 451.557 457.484 450.755 457.46C449.96 457.445 449.247 457.301 448.616 457.028C447.985 456.747 447.506 456.307 447.179 455.707C446.891 455.162 446.739 454.605 446.723 454.036C446.708 453.467 446.7 452.825 446.7 452.108V441.135H449.504V451.944C449.504 452.451 449.508 452.895 449.516 453.277C449.532 453.658 449.614 453.97 449.762 454.211C450.042 454.679 450.49 454.94 451.105 454.994C451.721 455.049 452.422 455.018 453.209 454.901V457.262ZM444.409 446.849V444.641H453.209V446.849H444.409ZM460.632 457.612C459.354 457.612 458.233 457.336 457.267 456.782C456.301 456.229 455.545 455.462 454.999 454.48C454.462 453.499 454.193 452.369 454.193 451.091C454.193 449.712 454.458 448.516 454.988 447.504C455.518 446.483 456.254 445.692 457.196 445.131C458.139 444.57 459.23 444.29 460.469 444.29C461.777 444.29 462.888 444.598 463.799 445.213C464.718 445.821 465.4 446.682 465.844 447.796C466.288 448.91 466.456 450.223 466.347 451.734H463.554V450.706C463.546 449.335 463.304 448.333 462.829 447.702C462.354 447.071 461.606 446.756 460.585 446.756C459.432 446.756 458.575 447.114 458.014 447.831C457.454 448.54 457.173 449.58 457.173 450.951C457.173 452.229 457.454 453.218 458.014 453.919C458.575 454.621 459.393 454.971 460.469 454.971C461.162 454.971 461.758 454.819 462.257 454.515C462.763 454.204 463.152 453.756 463.425 453.171L466.206 454.013C465.723 455.15 464.975 456.035 463.963 456.666C462.958 457.297 461.847 457.612 460.632 457.612ZM456.285 451.734V449.607H464.968V451.734H456.285ZM473.87 463.221C473.169 463.221 472.495 463.112 471.848 462.894C471.21 462.676 470.633 462.361 470.119 461.948C469.605 461.543 469.184 461.052 468.857 460.475L471.451 459.19C471.693 459.649 472.031 459.988 472.468 460.206C472.912 460.432 473.383 460.545 473.882 460.545C474.466 460.545 474.988 460.44 475.448 460.23C475.907 460.027 476.262 459.723 476.511 459.318C476.768 458.921 476.889 458.422 476.873 457.822V454.235H477.224V444.641H479.69V457.869C479.69 458.189 479.674 458.493 479.643 458.781C479.62 459.077 479.577 459.365 479.514 459.646C479.327 460.464 478.969 461.134 478.439 461.656C477.91 462.185 477.251 462.579 476.464 462.836C475.685 463.093 474.821 463.221 473.87 463.221ZM473.625 457.612C472.464 457.612 471.451 457.32 470.586 456.736C469.721 456.151 469.051 455.357 468.576 454.352C468.101 453.347 467.863 452.213 467.863 450.951C467.863 449.673 468.101 448.536 468.576 447.539C469.059 446.534 469.741 445.743 470.621 445.166C471.502 444.582 472.538 444.29 473.73 444.29C474.93 444.29 475.935 444.582 476.745 445.166C477.563 445.743 478.182 446.534 478.603 447.539C479.024 448.544 479.234 449.681 479.234 450.951C479.234 452.205 479.024 453.339 478.603 454.352C478.182 455.357 477.555 456.151 476.721 456.736C475.888 457.32 474.856 457.612 473.625 457.612ZM474.057 455.088C474.813 455.088 475.42 454.917 475.88 454.574C476.347 454.223 476.686 453.736 476.897 453.113C477.115 452.49 477.224 451.769 477.224 450.951C477.224 450.125 477.115 449.405 476.897 448.789C476.686 448.166 476.355 447.683 475.903 447.34C475.452 446.99 474.867 446.814 474.151 446.814C473.395 446.814 472.772 447.001 472.281 447.375C471.79 447.741 471.428 448.24 471.194 448.871C470.96 449.494 470.843 450.188 470.843 450.951C470.843 451.722 470.956 452.424 471.182 453.055C471.416 453.678 471.77 454.173 472.246 454.539C472.721 454.905 473.325 455.088 474.057 455.088ZM482.577 457.262V444.641H485.066V447.714L484.762 447.317C484.918 446.896 485.125 446.514 485.382 446.171C485.647 445.821 485.962 445.533 486.328 445.307C486.64 445.096 486.983 444.933 487.357 444.816C487.739 444.691 488.128 444.617 488.525 444.594C488.923 444.563 489.308 444.578 489.682 444.641V447.27C489.308 447.161 488.876 447.126 488.385 447.165C487.902 447.204 487.466 447.34 487.076 447.574C486.687 447.784 486.367 448.053 486.118 448.38C485.877 448.707 485.697 449.081 485.581 449.502C485.464 449.915 485.405 450.363 485.405 450.846V457.262H482.577ZM491.757 442.724V440.141H494.573V442.724H491.757ZM491.757 457.262V444.641H494.573V457.262H491.757ZM505.081 457.262C504.248 457.417 503.43 457.484 502.627 457.46C501.832 457.445 501.12 457.301 500.489 457.028C499.857 456.747 499.378 456.307 499.051 455.707C498.763 455.162 498.611 454.605 498.595 454.036C498.58 453.467 498.572 452.825 498.572 452.108V441.135H501.377V451.944C501.377 452.451 501.381 452.895 501.388 453.277C501.404 453.658 501.486 453.97 501.634 454.211C501.914 454.679 502.362 454.94 502.978 454.994C503.593 455.049 504.294 455.018 505.081 454.901V457.262ZM496.282 446.849V444.641H505.081V446.849H496.282ZM508.723 462.871L511.153 456.198L511.2 458.161L505.696 444.641H508.629L512.532 454.644H511.784L515.582 444.641H518.399L511.364 462.871H508.723Z" fill="white"/>
<circle cx="471.529" cy="447.843" r="130.105" stroke="#F5F5F5" stroke-width="1.55814"/>
<path d="M79.0928 457.262V440.434H89.9609V443.075H81.9091V447.223H88.5585V449.864H81.9091V454.621H89.9609V457.262H79.0928ZM93.4736 457.262V444.442C93.4736 444.123 93.4852 443.772 93.5086 443.39C93.532 443.001 93.5982 442.615 93.7073 442.233C93.8163 441.852 94.015 441.505 94.3033 441.193C94.6616 440.796 95.0473 440.523 95.4602 440.375C95.8809 440.219 96.2938 440.134 96.6989 440.118C97.104 440.095 97.4585 440.083 97.7623 440.083H99.34V442.374H97.8792C97.3416 442.374 96.9404 442.51 96.6755 442.783C96.4184 443.047 96.2899 443.398 96.2899 443.834V457.262H93.4736ZM91.4402 446.849V444.641H99.34V446.849H91.4402ZM101.338 457.262V444.442C101.338 444.123 101.35 443.772 101.373 443.39C101.397 443.001 101.463 442.615 101.572 442.233C101.681 441.852 101.88 441.505 102.168 441.193C102.526 440.796 102.912 440.523 103.325 440.375C103.746 440.219 104.159 440.134 104.564 440.118C104.969 440.095 105.323 440.083 105.627 440.083H107.205V442.374H105.744C105.206 442.374 104.805 442.51 104.54 442.783C104.283 443.047 104.155 443.398 104.155 443.834V457.262H101.338ZM99.3049 446.849V444.641H107.205V446.849H99.3049ZM109.269 442.724V440.142H112.085V442.724H109.269ZM109.269 457.262V444.641H112.085V457.262H109.269ZM120.677 457.612C119.376 457.612 118.266 457.324 117.347 456.747C116.427 456.163 115.722 455.369 115.231 454.364C114.748 453.359 114.503 452.221 114.495 450.951C114.503 449.658 114.756 448.513 115.255 447.515C115.761 446.51 116.478 445.724 117.405 445.155C118.332 444.578 119.435 444.29 120.712 444.29C122.146 444.29 123.357 444.652 124.347 445.377C125.344 446.094 125.994 447.075 126.298 448.322L123.494 449.081C123.275 448.404 122.913 447.878 122.407 447.504C121.9 447.122 121.324 446.931 120.677 446.931C119.945 446.931 119.341 447.106 118.866 447.457C118.391 447.8 118.04 448.275 117.814 448.883C117.588 449.49 117.475 450.18 117.475 450.951C117.475 452.151 117.744 453.121 118.282 453.861C118.819 454.601 119.618 454.971 120.677 454.971C121.425 454.971 122.013 454.8 122.442 454.457C122.878 454.114 123.205 453.619 123.423 452.973L126.298 453.616C125.909 454.901 125.227 455.89 124.253 456.584C123.279 457.269 122.087 457.612 120.677 457.612ZM128.142 442.724V440.142H130.958V442.724H128.142ZM128.142 457.262V444.641H130.958V457.262H128.142ZM139.807 457.612C138.529 457.612 137.407 457.336 136.441 456.783C135.475 456.229 134.72 455.462 134.174 454.48C133.637 453.499 133.368 452.369 133.368 451.091C133.368 449.712 133.633 448.517 134.163 447.504C134.692 446.483 135.429 445.692 136.371 445.132C137.314 444.571 138.405 444.29 139.643 444.29C140.952 444.29 142.062 444.598 142.974 445.213C143.893 445.821 144.575 446.682 145.019 447.796C145.463 448.91 145.631 450.223 145.521 451.734H142.729V450.706C142.721 449.335 142.479 448.333 142.004 447.702C141.529 447.071 140.781 446.756 139.76 446.756C138.607 446.756 137.75 447.114 137.189 447.831C136.628 448.54 136.348 449.58 136.348 450.951C136.348 452.229 136.628 453.218 137.189 453.919C137.75 454.621 138.568 454.971 139.643 454.971C140.337 454.971 140.933 454.819 141.431 454.515C141.938 454.204 142.327 453.756 142.6 453.172L145.381 454.013C144.898 455.15 144.15 456.035 143.138 456.666C142.133 457.297 141.022 457.612 139.807 457.612ZM135.46 451.734V449.607H144.143V451.734H135.46ZM156.127 457.262V451.185C156.127 450.788 156.099 450.347 156.045 449.864C155.99 449.381 155.862 448.918 155.659 448.474C155.464 448.022 155.168 447.652 154.771 447.364C154.381 447.075 153.852 446.931 153.182 446.931C152.823 446.931 152.469 446.99 152.118 447.106C151.768 447.223 151.448 447.426 151.16 447.714C150.879 447.995 150.654 448.384 150.482 448.883C150.311 449.374 150.225 450.005 150.225 450.776L148.554 450.063C148.554 448.988 148.76 448.014 149.173 447.142C149.594 446.269 150.209 445.576 151.02 445.061C151.83 444.539 152.827 444.278 154.011 444.278C154.946 444.278 155.718 444.434 156.325 444.746C156.933 445.057 157.416 445.455 157.774 445.938C158.133 446.421 158.398 446.935 158.569 447.48C158.74 448.026 158.849 448.544 158.896 449.035C158.951 449.518 158.978 449.911 158.978 450.215V457.262H156.127ZM147.374 457.262V444.641H149.886V448.556H150.225V457.262H147.374ZM166.913 457.612C165.612 457.612 164.502 457.324 163.583 456.747C162.663 456.163 161.958 455.369 161.468 454.364C160.985 453.359 160.739 452.221 160.731 450.951C160.739 449.658 160.992 448.513 161.491 447.515C161.997 446.51 162.714 445.724 163.641 445.155C164.568 444.578 165.671 444.29 166.948 444.29C168.382 444.29 169.593 444.652 170.583 445.377C171.58 446.094 172.23 447.075 172.534 448.322L169.73 449.081C169.511 448.404 169.149 447.878 168.643 447.504C168.136 447.122 167.56 446.931 166.913 446.931C166.181 446.931 165.577 447.106 165.102 447.457C164.627 447.8 164.276 448.275 164.05 448.883C163.824 449.49 163.711 450.18 163.711 450.951C163.711 452.151 163.98 453.121 164.518 453.861C165.055 454.601 165.854 454.971 166.913 454.971C167.661 454.971 168.249 454.8 168.678 454.457C169.114 454.114 169.441 453.619 169.66 452.973L172.534 453.616C172.145 454.901 171.463 455.89 170.489 456.584C169.515 457.269 168.323 457.612 166.913 457.612ZM175.689 462.871L178.12 456.198L178.167 458.161L172.663 444.641H175.596L179.499 454.644H178.751L182.549 444.641H185.366L178.331 462.871H175.689Z" fill="white"/>
<circle cx="131.854" cy="447.843" r="130.105" stroke="#F5F5F5" stroke-width="1.55814"/>
</svg>
