<svg width="157" height="48" viewBox="0 0 157 48" fill="none" xmlns="http://www.w3.org/2000/svg">
<path d="M57.7412 38.3904C55.633 38.3904 53.59 38.0911 51.612 37.4925C49.66 36.8939 48.1114 36.1001 46.9662 35.1111L48.723 31.1681C49.8422 32.053 51.2085 32.7817 52.8222 33.3543C54.4618 33.9008 56.1015 34.1741 57.7412 34.1741C59.7712 34.1741 61.2808 33.8488 62.2698 33.1981C63.2848 32.5475 63.7923 31.6886 63.7923 30.6215C63.7923 29.8407 63.506 29.2031 62.9334 28.7086C62.3869 28.188 61.6842 27.7846 60.8253 27.4983C59.9664 27.2121 58.7952 26.8867 57.3117 26.5224C55.2296 26.0279 53.5379 25.5334 52.2366 25.0388C50.9613 24.5443 49.8552 23.7766 48.9182 22.7355C48.0073 21.6684 47.5518 20.237 47.5518 18.4412C47.5518 16.9316 47.9552 15.5652 48.7621 14.342C49.5949 13.0927 50.8312 12.1037 52.4708 11.375C54.1365 10.6462 56.1666 10.2819 58.561 10.2819C60.2267 10.2819 61.8664 10.4901 63.48 10.9065C65.0936 11.3229 66.486 11.9215 67.6572 12.7023L66.0566 16.6453C64.8594 15.9426 63.6101 15.4091 62.3088 15.0447C61.0075 14.6803 59.7452 14.4982 58.522 14.4982C56.5179 14.4982 55.0214 14.8365 54.0324 15.5132C53.0694 16.1899 52.5879 17.0878 52.5879 18.2069C52.5879 18.9877 52.8612 19.6254 53.4078 20.1199C53.9804 20.6144 54.6961 21.0048 55.555 21.291C56.4138 21.5773 57.585 21.9027 59.0685 22.267C61.0986 22.7355 62.7643 23.23 64.0656 23.7505C65.3669 24.245 66.473 25.0128 67.384 26.0539C68.3209 27.0949 68.7894 28.5004 68.7894 30.2702C68.7894 31.7797 68.373 33.1461 67.5401 34.3693C66.7333 35.5926 65.497 36.5685 63.8314 37.2973C62.1657 38.026 60.1356 38.3904 57.7412 38.3904ZM84.2454 38.3904C81.4606 38.3904 78.949 37.7918 76.7108 36.5946C74.4725 35.3713 72.7157 33.6926 71.4404 31.5585C70.1651 29.3983 69.5275 26.9908 69.5275 24.3361C69.5275 21.6814 70.1651 19.287 71.4404 17.1528C72.7157 14.9927 74.4725 13.314 76.7108 12.1167C78.949 10.8935 81.4606 10.2819 84.2454 10.2819C87.0302 10.2819 89.5418 10.8935 91.7801 12.1167C94.0183 13.314 95.7751 14.9796 97.0504 17.1138C98.3257 19.248 98.9633 21.6554 98.9633 24.3361C98.9633 27.0169 98.3257 29.4243 97.0504 31.5585C95.7751 33.6926 94.0183 35.3713 91.7801 36.5946C89.5418 37.7918 87.0302 38.3904 84.2454 38.3904ZM84.2454 33.9399C86.0673 33.9399 87.7069 33.5365 89.1644 32.7297C90.6219 31.8968 91.767 30.7516 92.5999 29.2942C93.4327 27.8107 93.8492 26.158 93.8492 24.3361C93.8492 22.5143 93.4327 20.8746 92.5999 19.4171C91.767 17.9336 90.6219 16.7885 89.1644 15.9817C87.7069 15.1488 86.0673 14.7324 84.2454 14.7324C82.4236 14.7324 80.7839 15.1488 79.3264 15.9817C77.8689 16.7885 76.7238 17.9336 75.8909 19.4171C75.0581 20.8746 74.6417 22.5143 74.6417 24.3361C74.6417 26.158 75.0581 27.8107 75.8909 29.2942C76.7238 30.7516 77.8689 31.8968 79.3264 32.7297C80.7839 33.5365 82.4236 33.9399 84.2454 33.9399ZM119.881 38L114.298 29.9969C114.064 30.0229 113.712 30.0359 113.244 30.0359H107.076V38H102V10.6723H113.244C115.612 10.6723 117.668 11.0627 119.412 11.8435C121.182 12.6243 122.535 13.7434 123.472 15.2009C124.409 16.6583 124.878 18.3891 124.878 20.3931C124.878 22.4492 124.37 24.219 123.355 25.7025C122.366 27.186 120.935 28.2922 119.061 29.0209L125.346 38H119.881ZM119.764 20.3931C119.764 18.6494 119.191 17.309 118.046 16.3721C116.901 15.4351 115.222 14.9666 113.01 14.9666H107.076V25.8587H113.01C115.222 25.8587 116.901 25.3902 118.046 24.4533C119.191 23.4903 119.764 22.1369 119.764 20.3931ZM140.121 10.2819C142.567 10.2819 144.701 10.7634 146.523 11.7263C148.345 12.6893 149.75 14.1208 150.739 16.0207C151.754 17.8946 152.262 20.1719 152.262 22.8526V38H147.187V30.9729H132.976V38H127.979V22.8526C127.979 20.1719 128.474 17.8946 129.463 16.0207C130.478 14.1208 131.896 12.6893 133.718 11.7263C135.54 10.7634 137.674 10.2819 140.121 10.2819ZM147.187 26.7176V22.3842C147.187 19.8596 146.562 17.9597 145.313 16.6844C144.064 15.3831 142.32 14.7324 140.081 14.7324C137.843 14.7324 136.099 15.3831 134.85 16.6844C133.601 17.9597 132.976 19.8596 132.976 22.3842V26.7176H147.187Z" fill="white"/>
<path fill-rule="evenodd" clip-rule="evenodd" d="M37.5926 4.71106C37.3527 4.64475 37.0999 4.60931 36.8389 4.60931H15.9908C10.0244 4.60931 5.18774 9.44601 5.18774 15.4124V23.4995C5.18774 24.0024 5.32442 24.4733 5.56266 24.8773C5.71779 25.1403 5.89189 25.394 6.06587 25.6475C6.20331 25.8478 6.34066 26.048 6.46852 26.2525C6.67818 26.5879 6.92881 26.905 7.22044 27.1966C9.29545 29.2717 12.6597 29.2717 14.7347 27.1966C16.8097 25.1216 16.8097 21.7574 14.7347 19.6824C14.6214 19.569 14.5042 19.4618 14.3835 19.3609C12.7073 17.9578 10.5859 16.1631 11.6743 14.2674C13.0509 11.8695 15.6369 10.2545 18.6002 10.2545L33.4182 10.2545L37.5926 4.71106Z" fill="white"/>
<path fill-rule="evenodd" clip-rule="evenodd" d="M26.5876 31.1665C27.676 29.2708 25.5546 27.4761 23.8783 26.073C23.7577 25.972 23.6405 25.8649 23.5272 25.7515C21.4522 23.6765 21.4522 20.3122 23.5272 18.2372C25.6022 16.1622 28.9664 16.1622 31.0415 18.2372C31.3331 18.5288 31.5837 18.8459 31.7933 19.1813C31.9212 19.3858 32.0585 19.586 32.196 19.7863C32.37 20.0398 32.5441 20.2935 32.6992 20.5566C32.9375 20.9605 33.0742 21.4315 33.0742 21.9344V30.0215C33.0742 35.9879 28.2375 40.8245 22.2711 40.8245H1.423C1.25958 40.8245 1.09941 40.8107 0.943604 40.784L5.16415 35.1794L19.6618 35.1794C22.625 35.1794 25.211 33.5644 26.5876 31.1665Z" fill="white"/>
</svg>
